<svg xmlns="http://www.w3.org/2000/svg" width="275" height="91" xmlns:v="https://vecta.io/nano"><svg y="-98.734" x="-6.496" viewBox="0 0 1024 721" height="288" width="288"><path fill="#fff" d="M977.3 200.2c-.5.7-2.1 3.5-3.5 6.3-2.1 4.3-10.3 20.3-36.5 71.4-2.9 5.8-5.1 10.6-4.9 10.8s1.9-1.6 3.7-4c1.9-2.5 10.1-12.9 18.4-23.2l15-18.7 2.1 2.5c2.9 3.4 6.3 15 8 27.2 2.4 16.9 2.9 46.9 1 63-2.9 25.1-7.6 48.6-15 75-2 7.4-12.1 32.5-17.8 44.5-7.3 15.2-8.8 18.9-8 19.4.4.2 2.4.8 4.4 1.4l3.7 1 6.6-11.8c12.1-21.8 22-44 28.6-64.4 9.3-28.5 16.1-70.7 17.6-110.1 1.1-29.1-3.8-55.5-14.2-77-6.5-13.5-7.7-15.2-9.2-13.3zM61.7 219c-7.1 1.3-16.5 6.1-22.4 11.4-11.1 10-17.3 29.4-15.9 50 1.1 18.2 5.5 29.4 15.1 39 19.9 20 57.2 17.4 72-5 3.5-5.2 8.5-17.7 8.5-21 0-.7-3.1-1.6-7.5-2.3-10.1-1.5-11.5-1.4-11.5.6 0 3.9-3.7 12.7-6.9 16.5-11.7 13.6-35.3 11.2-44.6-4.7-7.1-12-7.4-41.5-.5-54.7 6.3-12.2 22.4-18.4 35.2-13.5 5.8 2.2 12.3 9.3 14 15.1.6 2.3 1.4 4.4 1.7 4.8.4.4 4.6 0 9.4-.9l8.7-1.6-.6-3.6c-2-10.8-11.7-22.4-22.8-27.3-5.6-2.5-8.3-3-16.9-3.3-5.6-.2-12.4 0-15 .5zm105.8.1c-10.1 1.7-22.8 9.6-29.3 18.3-8.9 11.8-12.6 35.6-8.6 55.2 5.6 27 26.5 42.2 54.9 39.9 20.3-1.6 35.8-13.2 42.9-32.3 2.8-7.3 2.9-8.5 3-24.2.1-13.6-.3-17.5-1.8-22-7.9-23.5-25.9-36.3-50.1-35.9-3.3.1-8.3.5-11 1zm26.6 18.6c6.6 3.6 11.2 9.3 14.5 17.9 2.4 6.5 2.6 7.7 2.2 21.4-.5 17.8-2.3 23.3-10.3 31.3-15.2 15.2-40.1 10.2-49.1-9.8-5.3-11.8-5.2-34.3.2-46.5 7.4-16.5 26.6-23 42.5-14.3zm98.9-18.8c-5.9 1.2-13.6 5.8-18.9 11.2l-5.1 5.2v-7.7-7.6h-8-8v55.5 55.6l9.3-.3 9.2-.3.5-38c.5-37.2.6-38.1 2.8-42.7 7.3-14.8 25.7-20.3 36.5-10.8 5.9 5.1 6 6.5 6.4 51.2l.4 40.8h9.5 9.4v-35.8c0-39.5.6-44.6 5.7-51 1.6-2 5.4-5 8.4-6.6 4.4-2.4 6.6-3 12.1-3 5.8-.1 7.2.3 10.9 2.9 8.6 6.1 8.4 4.4 8.7 51.8l.4 41.8 9.1-.3 9.2-.3v-44-44l-2.9-6.3c-3.3-7-8.6-12.4-15.5-15.5-3.7-1.7-6.6-2.1-15.1-2.1-9.4 0-11.1.3-16.7 2.8-4.2 1.9-8.1 4.8-12 8.9-3.1 3.3-5.9 5.4-6.1 4.8-1-3.1-7.2-9.8-11.2-12.3-6.9-4.2-19.1-5.9-29-3.9zm176.2.2c-6.2 1.2-13.6 5.6-18.7 11l-4.5 4.8v-7.4-7.5h-8.5-8.5v55.5 55.6l9.3-.3 9.2-.3.5-37c.5-35.7.6-37.2 2.8-42.5 4.5-10.7 12.8-16.3 24.2-16.4 8.5-.1 12.6 2.2 16 8.9l2.5 5 .5 41 .5 41 9.2.3 9.1.3.5-37.8c.3-28.4.8-38.8 1.8-41.8.8-2.2 3.6-6.3 6.4-9.2 3.9-4 6.2-5.5 10.8-6.8 10.3-3 20.1.3 24.1 8 2 3.8 2.1 5.7 2.4 45.7l.3 41.8h9.4 9.5v-41.6c0-33.6-.3-42.8-1.5-48.2-2.1-9-7-15.5-14.9-19.6-5.6-2.9-6.6-3.1-17-3.1-10.3 0-11.5.2-17.1 3-3.2 1.7-8.5 5.6-11.6 8.7l-5.6 5.7-3.2-4.9c-6.8-10.5-21.5-15.2-37.9-11.9zm169.3-.1c-7.1 1.1-17.8 6.5-24.2 12.3-3.9 3.6-6.5 7.2-9.3 13.1-5 10.4-6.4 19.1-5.7 36.1.5 14.2 2.7 22.2 8.7 31.5 15.8 24.5 56.1 28.1 78.5 6.9 7.7-7.3 12.1-16.4 14-29.4 1.9-12.6 1.9-18.1 0-28.9-2.2-12.5-6-20.1-14-28.1-12.3-12.3-27.5-16.6-48-13.5zm24.1 17.5c9.8 4.3 16.3 13.5 18.5 26.1 1.7 9.8.6 26.3-2.2 33.8-2.7 7.4-9.6 15.1-16.4 18.2-6.1 2.9-15.8 3.2-22.8.8-6.5-2.2-13.9-9.1-17.2-16.1-5.4-11.4-5.6-35.1-.5-46.6 7.2-16.3 24.7-23.3 40.6-16.2zM764.4 219c-6.2 1.3-14 5.6-18.9 10.5l-4.4 4.4-.3-6.7-.3-6.7H732h-8.5v55 55l9.2.3 9.2.3.3-36.8c.3-36 .4-36.9 2.7-42.8 3.3-8.2 8-12.6 17-15.5 8.6-2.7 13.9-2.3 21.4 1.7 4 2.2 5.7 3.9 7.7 7.8l2.5 4.9.3 40.4.3 40.3 9.2-.3 9.2-.3v-43c0-42.3 0-43.1-2.3-48.6-1.2-3-3.7-7.3-5.6-9.5-7.8-9-24.8-13.4-40.2-10.4zM906 318.3l-75.5 72.3c-71 67.7-71.4 68.1-69.4 68.8.8.3 6.1 1.4 11.9 2.6l69 14 22.5 4.6 44.3 9c9.1 2 10.4 1.3 2-1l-12.3-3.6c-3.3-1.1-12.7-4-21-6.5l-23-7-49.7-15.1c-5.4-1.5-9.8-3.1-9.8-3.4.1-.5 8.5-10.4 44-52l29-34 32.4-37.9c10.9-12.8 19.7-23.4 19.5-23.6s-6.5 5.6-13.9 12.8zm21 69.4l.5 58.2c.8-.8 4.3-23 5.7-35.9 1.9-17.7 1.6-46.9-.5-60.5-1.6-10.1-4.3-20.5-5.3-20.5-.2 0-.4 26.4-.4 58.7zm-849.5-2.1c-16.7 3.9-23.3 6.8-31.4 13.7-11.8 10.1-18.6 22.7-21.5 39.6-2.1 12.3-2 21.6.3 32.1 3 14.1 2.4 13.4 15.4 17.4 6.3 2 11.7 3.6 12 3.6s-1-2.3-2.8-5.2c-8-12.1-10.1-30.3-5.8-50.8 4.7-23 22.9-36.5 46.6-34.7 9.7.7 13.5 2 20.9 7 7.4 4.9 13.4 13.1 16.9 22.7 1.9 5.3 2.4 9 2.7 20.6.4 15.5-.7 22.1-5.3 31.7-2.9 6.2-12.3 16-17.6 18.4-2.1 1-3.9 2.1-3.9 2.4 0 .6 7.6 1.9 20.1 3.4 4.1.5 5.9-.7 11.9-8.5 5-6.4 7.7-11.7 10.7-21.2 2.3-7.4 2.6-9.9 2.6-23.8 0-14-.3-16.3-2.7-24-8.6-27.5-29.1-43.3-57.6-44.5-5.2-.2-10.4-.2-11.5.1zm143.5.1c-19.4 3.4-34.4 12.5-43.2 26.3-13.3 20.8-14 55.5-1.5 80.5 3.5 7.1 9.3 14.5 11.3 14.5 2.5 0 19.4-4.3 19.4-4.9-.1-.3-1.9-1.8-4.1-3.4C192 491.2 186 475 186 453.3c0-33.7 15.3-52.3 43-52.3 16.4 0 28.3 7.8 33.7 22 .9 2.5 1.8 4.6 1.9 4.8.6.8 16.7-3.3 17.1-4.4.2-.6-1.2-4.7-3.2-8.9-4.7-9.8-13.5-18.9-22.6-23.3-10-4.9-25-7.2-34.9-5.5zm85 41.3l.5 39c.2 0 3.5-1.2 7.2-2.6 13.6-5.1 21-7.5 33.3-10.3 12.3-2.9 36.2-6.1 45.3-6.1h4.7v-7.6-7.6l-14.7.5c-15.3.5-28.7 2.8-47.8 8.1-4.9 1.4-9.3 2.6-9.7 2.6-.5 0-.8-9-.8-20v-20h39 39v-7.5-7.5h-48-48v39zm159-38.7c0 .1-3.4 9-7.6 19.7l-9.4 24.5-4.4 11.7c-1.3 3.7-2.2 6.9-1.8 7.1.4.3 4.1 1.2 8.2 2.2 11.6 2.8 20.6 6.5 47.1 19.6 23.6 11.7 49.5 23.9 50.8 23.9.3 0-2.1-1.6-5.4-3.6-7.1-4.2-17.5-11.3-19.1-12.9-.6-.6-3.6-7.1-6.7-14.5l-23.4-57-7.1-17.3-1.5-3.7h-9.9c-5.4 0-9.8.1-9.8.3zm13.5 26.1c1.9 5.9 4.4 12.9 5.4 15.4l4.7 12.2 5.1 13.4c1.3 3.2 2.3 6 2.1 6.2-.2.1-3.7-1.7-7.8-4.1-6.5-3.9-15.1-7.9-24.3-11.4-2.6-1-2.6-1.1-1.2-5.3.7-2.4 2.9-8.5 4.8-13.6s4.3-12.6 5.2-16.7c1-4.2 2-7.4 2.1-7.2.2.2 1.9 5.2 3.9 11.1zm73.3 29.1l-.3 55.5 8.5 3.3 8.5 3.3.5-44.3.5-44.3 28.5 42.5 31.4 47.2 2.9 4.5 7.6-.6 12.4-1.3 4.7-.6v-60.3V388h-9-9l-.2 50.7-.3 50.7-33.9-50.7-34-50.7h-9.3-9.3l-.2 55.5zm163.2 9.3c0 4.2 5.2 21.1 8.5 27.8 4.5 9.2 10.9 15.1 19.6 18.2 6.3 2.2 7.3 2.2 53.4 2.3 59.1 0 86 1 103 3.9 18.3 3 34.5 6.7 40.5 9 2.8 1.1 5.3 2 5.5 2 .5 0 5.5-8.4 5.5-9.2 0-.3-4.2-1.6-9.2-2.7l-19.3-4.6L882 490l-22-5.1-16.5-3.9-18.5-4.3-22-5.2-22-5.1-65.6-15.4c-.2 0-.4.8-.4 1.8zm-283.2 22.3l-4.7 11.9c-1.1 3-4.3 11.3-7.1 18.4-2.7 7-5 13.2-5 13.7s4.2.9 9.3.9h9.2l3.4-9.3 5.7-15.7c1.2-3.6 3.6-10.2 5.2-14.7l2.9-8.3-3.6-1c-2-.6-5.6-1.3-8.2-1.6l-4.5-.6-2.6 6.3zm-118.4 6.7c-3.8 1.5-8.1 3.4-9.5 4.3-18.3 12-57.9 27.8-82.6 32.8l-8.8 1.9 6 .7c3.3.4 12.3.5 20 .2 11.6-.5 15.6-1.1 23.6-3.6 8.5-2.6 34.7-14.8 40.3-18.7 1.1-.8 2.4-1.4 2.8-1.4.5 0 .8 4.9.8 11v11h49.5H405v-8-8h-40.5H324v-12.5c0-14.5.6-13.9-10.6-9.7zm200.9 27.7l4 10.5h9.9c5.4 0 9.8-.4 9.8-.9 0-.4-.5-2.2-1.1-3.8-.8-2.4-2.7-3.9-8.8-7.1l-12.6-6.6-5-2.6c-.2 0 1.6 4.7 3.8 10.5zm-462.8 2.7c10 6.9 21 9.9 35.4 9.7l8.6-.1-9-2.4-13-3.3c-3.5-.8-17.8-4.6-24.7-6.6-1.2-.4 0 .9 2.7 2.7z"/></svg></svg>